<?xml version="1.0" encoding="iso-8859-1"?>
<!-- Generator: Adobe Illustrator 16.0.0, SVG Export Plug-In . SVG Version: 6.00 Build 0)  -->
<!DOCTYPE svg PUBLIC "-//W3C//DTD SVG 1.1//EN" "http://www.w3.org/Graphics/SVG/1.1/DTD/svg11.dtd">
<svg version="1.1" id="Capa_1" xmlns="http://www.w3.org/2000/svg" xmlns:xlink="http://www.w3.org/1999/xlink" x="0px" y="0px"
	 width="87.008px" height="87.008px" viewBox="0 0 87.008 87.008" style="enable-background:new 0 0 87.008 87.008;fill: #4CA1AF;
"
	 xml:space="preserve">
<g>
	<path d="M83.342,19.173l-28.686-0.008L43.193,0L31.734,19.16L6.332,19.153l12.016,22.39L3.666,66.092h27.858l11.225,20.916
		l12.519-20.916H82.72L68.996,43.146L83.342,19.173z M67.211,46.129l10.107,16.898H57.098L67.211,46.129z M56.488,22.229
		l21.449,0.007L67.211,40.161L56.488,22.229z M65.426,43.145L53.527,63.027H33.356L21.869,41.625l11.602-19.401l19.445,0.005
		L65.426,43.145z M35.303,19.16l7.891-13.192l7.891,13.197L35.303,19.16z M20.037,44.689l9.842,18.34H9.068L20.037,44.689z
		 M11.453,22.218l18.449,0.005L20.179,38.48L11.453,22.218z M51.695,66.092L42.892,80.8l-7.893-14.708H51.695z"/>
</g>
<g>
</g>
<g>
</g>
<g>
</g>
<g>
</g>
<g>
</g>
<g>
</g>
<g>
</g>
<g>
</g>
<g>
</g>
<g>
</g>
<g>
</g>
<g>
</g>
<g>
</g>
<g>
</g>
<g>
</g>
</svg>
